<svg width="52" height="66" viewBox="0 0 52 66" fill="none" xmlns="http://www.w3.org/2000/svg">
<g clip-path="url(#clip0_32_1115)">
<path fill-rule="evenodd" clip-rule="evenodd" d="M5.29138 34.4589C6.8602 28.0801 6.75747 21.9372 6.94549 15.4671C6.98202 14.2035 5.98942 13.153 4.72964 13.1149C3.4691 13.0769 2.4171 14.0741 2.37981 15.3377C2.20169 21.4729 2.34557 27.3112 0.856674 33.3703C0.555242 34.5958 1.30503 35.8366 2.52904 36.1334C3.75227 36.4379 4.99071 35.6844 5.29138 34.4589Z" fill="#2AA7FF"/>
<path fill-rule="evenodd" clip-rule="evenodd" d="M18.6205 46.8206C29.2635 37.0925 39.2915 24.5785 46.3005 11.9427C46.9118 10.8389 46.5136 9.44588 45.4114 8.83693C44.3092 8.22798 42.9178 8.62383 42.3065 9.72756C35.5289 21.9447 25.8305 34.0477 15.5392 43.4485C14.609 44.301 14.5443 45.7473 15.3945 46.6759C16.2448 47.6046 17.6903 47.6731 18.6205 46.8206Z" fill="#2AA7FF"/>
<path fill-rule="evenodd" clip-rule="evenodd" d="M21.3162 57.4469C31.0503 59.053 41.0836 56.3128 49.9348 52.4383C51.0895 51.9283 51.6163 50.581 51.1116 49.4316C50.6062 48.2746 49.258 47.7493 48.1033 48.2517C40.0422 51.7837 30.9255 54.4022 22.0599 52.9407C20.8161 52.7352 19.64 53.5801 19.4353 54.8208C19.2297 56.0616 20.0731 57.2413 21.3162 57.4469Z" fill="#2AA7FF"/>
</g>
<defs>
<clipPath id="clip0_32_1115">
<rect width="51" height="65" fill="white" transform="translate(0.790039 0.790039)"/>
</clipPath>
</defs>
</svg>
