<svg width="280" height="244" viewBox="0 0 280 244" fill="none" xmlns="http://www.w3.org/2000/svg">
<g clip-path="url(#clip0_201_3566)">
<path fill-rule="evenodd" clip-rule="evenodd" d="M11.063 113.658C16.9286 114.018 32.3269 113.815 74.1271 113.248C139.4 112.359 191.21 112.091 205.618 112.594C206.762 112.644 115.275 114.473 105.873 114.254C91.2172 113.889 21.2726 115.403 7.20635 116.278C3.20764 116.515 4.71728 117.117 7.32724 117.212C11.4033 117.375 22.3352 117.193 52.3088 116.71C73.3868 116.379 241.092 114.437 259.433 115.082C269.73 115.444 275.989 115.82 278.845 115.667C281.237 115.543 281.269 115.275 279.186 114.57C277.786 114.1 279.354 113.788 280.352 113.639C281.885 113.394 281.231 112.646 279.293 112.072C276.673 111.286 272.172 111.374 274.327 112.167C274.794 112.339 274.908 112.783 273.263 112.718C268.472 112.521 234.613 111.189 225.427 111.011C127.345 109.059 31.7064 112.933 11.4377 112.405C4.2522 112.198 7.55797 113.442 11.063 113.658Z" fill="#25B4F8"/>
</g>
<defs>
<clipPath id="clip0_201_3566">
<rect width="276.472" height="239.477" fill="white" transform="translate(0 4.04688) rotate(-0.838568)"/>
</clipPath>
</defs>
</svg>
